<svg width="820" height="230" viewBox="0 0 820 230" fill="none" xmlns="http://www.w3.org/2000/svg" role="img" aria-labelledby="title desc">
  <title id="title">Ambientale Limpeza e Controle</title>
  <desc id="desc">Logo Ambientale Limpeza e Controle em azul e prata.</desc>
  <path d="M111 23L24 206" stroke="#0B315B" stroke-width="13" stroke-linecap="round" stroke-linejoin="round"/>
  <path d="M111 23L186 195" stroke="#0B315B" stroke-width="13" stroke-linecap="round" stroke-linejoin="round"/>
  <path d="M34 169C83 114 139 90 172 40C171 97 113 133 34 199C46 185 58 177 79 166C107 151 137 129 153 105C119 129 80 143 34 169Z" fill="#E8F1F8"/>
  <path d="M34 169C83 114 139 90 172 40C162 101 104 137 34 199" stroke="#9EB9CE" stroke-width="5" stroke-linecap="round" stroke-linejoin="round"/>
  <path d="M44 157C90 122 126 100 164 58" stroke="#0B315B" stroke-width="5" stroke-linecap="round"/>
  <text x="190" y="139" fill="#0B315B" font-family="Manrope, Montserrat, Arial, sans-serif" font-size="93" font-weight="300" letter-spacing="-1">mbientale</text>
  <text x="238" y="185" fill="#C9D6E2" stroke="#0B315B" stroke-width="1.2" font-family="Manrope, Montserrat, Arial, sans-serif" font-size="36" font-weight="300">Limpeza e Controle</text>
  <path d="M238 207C371 186 561 184 723 207" stroke="#9EB9CE" stroke-width="5" stroke-linecap="round"/>
</svg>
