<svg width="512" height="512" viewBox="0 0 512 512" fill="none" xmlns="http://www.w3.org/2000/svg">
  <title>Ambientale Limpeza e Controle</title>
  <circle cx="256" cy="256" r="246" fill="#002642"/>
  <path d="M94 151L62 352" stroke="#FFFFFF" stroke-width="18" stroke-linecap="round" stroke-linejoin="round"/>
  <path d="M94 151L151 339" stroke="#FFFFFF" stroke-width="18" stroke-linecap="round" stroke-linejoin="round"/>
  <path d="M70 315C108 255 152 232 175 167C181 242 134 284 70 360C79 343 89 331 105 316C128 296 151 268 160 239C135 269 106 291 70 315Z" fill="#FFFFFF"/>
  <path d="M70 315C108 255 152 232 175 167C171 240 124 287 70 360" stroke="#FFFFFF" stroke-width="7" stroke-linecap="round" stroke-linejoin="round"/>
  <path d="M78 303C113 264 142 238 169 188" stroke="#FFFFFF" stroke-width="7" stroke-linecap="round"/>
  <text x="160" y="283" fill="#FFFFFF" font-family="Arial, sans-serif" font-size="68" font-weight="300">mbientale</text>
  <text x="194" y="330" fill="#FFFFFF" font-family="Arial, sans-serif" font-size="27" font-weight="300">Limpeza e Controle</text>
  <path d="M191 358C271 343 370 343 445 358" stroke="#D9D9D9" stroke-width="5" stroke-linecap="round"/>
</svg>
